<svg width="16" height="16" viewBox="0 0 16 16" fill="none" xmlns="http://www.w3.org/2000/svg">
<path d="M3.82505 8.9998L8.72505 13.8998C8.92505 14.0998 9.02088 14.3331 9.01255 14.5998C9.00422 14.8665 8.90005 15.0998 8.70005 15.2998C8.50005 15.4831 8.26672 15.579 8.00005 15.5873C7.73338 15.5956 7.50005 15.4998 7.30005 15.2998L0.700049 8.69981C0.600049 8.5998 0.529215 8.49147 0.487549 8.3748C0.445882 8.25814 0.425049 8.13314 0.425049 7.9998C0.425049 7.86647 0.445882 7.74147 0.487549 7.6248C0.529215 7.50814 0.600049 7.3998 0.700049 7.2998L7.30005 0.699805C7.48338 0.516471 7.71255 0.424805 7.98755 0.424805C8.26255 0.424805 8.50005 0.516471 8.70005 0.699805C8.90005 0.899805 9.00005 1.1373 9.00005 1.4123C9.00005 1.6873 8.90005 1.9248 8.70005 2.1248L3.82505 6.9998H15C15.2834 6.9998 15.5209 7.09564 15.7125 7.2873C15.9042 7.47897 16 7.71647 16 7.9998C16 8.28314 15.9042 8.52064 15.7125 8.71231C15.5209 8.90397 15.2834 8.9998 15 8.9998H3.82505Z" fill="#1C1B1F"/>
</svg>
